<svg width="24" height="24" viewBox="0 0 24 24" fill="none" xmlns="http://www.w3.org/2000/svg">
<path fill-rule="evenodd" clip-rule="evenodd" d="M5.39457 4.68746C5.19931 4.4922 4.88272 4.4922 4.68746 4.68746C4.4922 4.88272 4.4922 5.19931 4.68746 5.39457L11.2922 11.9993L4.68782 18.6038C4.49255 18.799 4.49255 19.1156 4.68782 19.3109C4.88308 19.5061 5.19966 19.5061 5.39492 19.3109L11.9993 12.7064L18.6038 19.3109C18.799 19.5061 19.1156 19.5061 19.3109 19.3109C19.5061 19.1156 19.5061 18.799 19.3109 18.6038L12.7064 11.9993L19.3112 5.39457C19.5065 5.19931 19.5065 4.88272 19.3112 4.68746C19.116 4.4922 18.7994 4.4922 18.6041 4.68746L11.9993 11.2922L5.39457 4.68746Z" fill="#1D1D1D"/>
</svg>
