<svg width="34" height="34" viewBox="0 0 34 34" fill="none" xmlns="http://www.w3.org/2000/svg">
<path d="M16.6701 11.8179L16.9991 12.1054L17.3281 11.8179C18.1875 11.067 19.3802 10.5376 20.5918 10.502C21.7896 10.4668 22.9541 10.8915 23.8623 12.0286C24.7971 13.2105 24.7265 15.3276 23.4973 17.6428C22.2949 19.8808 20.0746 22.1105 16.9991 23.456C13.9229 22.1102 11.7041 19.8803 10.5217 17.6447L10.5217 17.6447L10.5197 17.6411C9.27151 15.3268 9.20153 13.21 10.1359 12.0286C11.0441 10.8915 12.2086 10.4668 13.4064 10.502C14.618 10.5376 15.8107 11.067 16.6701 11.8179Z" fill="white" stroke="#AFAFAF"/>
</svg>
