<svg width="38" height="38" viewBox="0 0 38 38" fill="none" xmlns="http://www.w3.org/2000/svg">
<path fill-rule="evenodd" clip-rule="evenodd" d="M25.7812 17.3128C25.7812 21.772 22.0908 25.4255 17.4906 25.4255C12.8903 25.4255 9.2 21.772 9.2 17.3128C9.2 12.8535 12.8903 9.2 17.4906 9.2C22.0908 9.2 25.7812 12.8535 25.7812 17.3128ZM23.4225 24.5827C21.7976 25.8609 19.7351 26.6255 17.4906 26.6255C12.2491 26.6255 8 22.4561 8 17.3128C8 12.1695 12.2491 8 17.4906 8C22.7321 8 26.9812 12.1695 26.9812 17.3128C26.9812 19.8255 25.967 22.1058 24.3185 23.781L29.7103 29.0718C29.9468 29.3039 29.9468 29.6802 29.7103 29.9123C29.4738 30.1443 29.0903 30.1443 28.8538 29.9123L23.4225 24.5827Z" fill="#1D1D1D"/>
</svg>
