<svg width="50" height="50" viewBox="0 0 50 50" fill="none" xmlns="http://www.w3.org/2000/svg">
<circle cx="25" cy="25" r="25" fill="#FEE500"/>
<path d="M25.334 15.3333C27.3228 15.3333 29.1623 15.7142 30.8524 16.4761C32.5425 17.238 33.8786 18.274 34.8608 19.5841C35.8429 20.8943 36.334 22.3233 36.334 23.8713C36.334 25.4192 35.8429 26.8503 34.8608 28.1645C33.8786 29.4786 32.5445 30.5167 30.8585 31.2786C29.1725 32.0405 27.331 32.4214 25.334 32.4214C24.7038 32.4214 24.0531 32.3771 23.382 32.2884C20.4683 34.2798 18.9173 35.2876 18.7291 35.3118C18.639 35.344 18.5531 35.34 18.4713 35.2997C18.4385 35.2755 18.414 35.2432 18.3976 35.2029C18.3812 35.1626 18.373 35.1263 18.373 35.0941V35.0457C18.4222 34.7313 18.7945 33.4211 19.4902 31.1153C17.9106 30.3413 16.6563 29.3154 15.7274 28.0375C14.7985 26.7596 14.334 25.3709 14.334 23.8713C14.334 22.3233 14.8251 20.8943 15.8072 19.5841C16.7893 18.274 18.1255 17.238 19.8156 16.4761C21.5057 15.7142 23.3451 15.3333 25.334 15.3333ZM19.7603 26.1328V22.4201H20.7302C20.8611 22.4201 20.9982 22.3737 21.1415 22.281C21.2847 22.1883 21.3563 22.0613 21.3563 21.9C21.3563 21.7388 21.2908 21.6037 21.1599 21.4949C21.0289 21.3861 20.9021 21.3316 20.7793 21.3316H17.5873C17.4482 21.3316 17.3172 21.372 17.1945 21.4526C17.0717 21.5332 17.0103 21.6662 17.0103 21.8517C17.0103 22.0371 17.0758 22.1782 17.2068 22.2749C17.3377 22.3717 17.485 22.4201 17.6487 22.4201H18.6186V26.1328C18.6186 26.3343 18.6677 26.4996 18.7659 26.6286C18.8641 26.7576 19.0033 26.8221 19.1833 26.8221C19.3634 26.8221 19.5046 26.7495 19.6069 26.6044C19.7092 26.4593 19.7603 26.3021 19.7603 26.1328ZM25.0762 26.8221C25.379 26.7092 25.4731 26.423 25.3585 25.9635C25.3258 25.8586 25.0946 25.2318 24.6649 24.0829C24.2352 22.934 23.9876 22.279 23.9222 22.1177C23.7012 21.5937 23.3983 21.3316 23.0137 21.3316C22.5963 21.3316 22.273 21.5937 22.0438 22.1177C21.9783 22.2548 21.7287 22.9219 21.2949 24.1192C20.8611 25.3165 20.6361 25.9312 20.6197 25.9635C20.5624 26.036 20.5481 26.169 20.5767 26.3625C20.6054 26.556 20.6934 26.6891 20.8407 26.7616C21.0044 26.8342 21.164 26.8423 21.3195 26.7858C21.475 26.7294 21.5814 26.6447 21.6387 26.5319L21.9333 25.7337H24.0695C24.1595 26.0239 24.225 26.2134 24.2659 26.3021C24.3068 26.3827 24.3518 26.4633 24.4009 26.5439C24.4501 26.6246 24.5401 26.7032 24.671 26.7798C24.802 26.8564 24.937 26.8705 25.0762 26.8221ZM28.3786 26.8221C28.5505 26.8221 28.7081 26.7697 28.8513 26.6649C28.9945 26.5601 29.0661 26.419 29.0661 26.2416C29.0661 26.0642 29.0007 25.9252 28.8697 25.8244C28.7387 25.7236 28.5751 25.6732 28.3786 25.6732H27.0159V22.021C27.0159 21.8517 26.9648 21.6944 26.8624 21.5493C26.7601 21.4042 26.619 21.3316 26.4389 21.3316C26.2588 21.3316 26.1197 21.3961 26.0215 21.5251C25.9233 21.6541 25.8742 21.8194 25.8742 22.021V26.1328C25.8742 26.3343 25.9233 26.4996 26.0215 26.6286C26.1197 26.7576 26.2588 26.8221 26.4389 26.8221C26.4471 26.8221 26.4614 26.8201 26.4819 26.8161C26.5023 26.812 26.5166 26.81 26.5248 26.81C26.533 26.81 26.5473 26.812 26.5678 26.8161C26.5883 26.8201 26.6026 26.8221 26.6108 26.8221H28.3786ZM33.2157 26.7374C33.3548 26.6084 33.4244 26.4613 33.4244 26.296C33.4244 26.1308 33.3712 25.9836 33.2648 25.8546C33.2157 25.7821 32.7001 25.1008 31.7179 23.8108C32.1926 23.3351 32.6714 22.8595 33.1543 22.3838C33.2771 22.2628 33.3528 22.1197 33.3814 21.9545C33.4101 21.7892 33.363 21.634 33.2402 21.4889C33.1011 21.3599 32.9517 21.3075 32.7921 21.3316C32.6325 21.3558 32.4832 21.4364 32.344 21.5735C32.3195 21.5977 32.2131 21.7045 32.0248 21.894C31.8366 22.0835 31.5931 22.3273 31.2944 22.6256C30.9956 22.924 30.7317 23.19 30.5025 23.4238V22.021C30.5025 21.8517 30.4514 21.6944 30.3491 21.5493C30.2467 21.4042 30.1056 21.3316 29.9255 21.3316C29.7454 21.3316 29.6063 21.3961 29.5081 21.5251C29.4099 21.6541 29.3608 21.8194 29.3608 22.021V26.1328C29.3608 26.3343 29.4099 26.4996 29.5081 26.6286C29.6063 26.7576 29.7454 26.8221 29.9255 26.8221C30.1056 26.8221 30.2467 26.7495 30.3491 26.6044C30.4514 26.4593 30.5025 26.3021 30.5025 26.1328V25.0323C30.5352 25 30.5966 24.9375 30.6867 24.8448C30.7767 24.7521 30.8504 24.6775 30.9076 24.6211C31.4478 25.3467 31.9307 25.9876 32.3563 26.5439C32.4709 26.6971 32.6039 26.7959 32.7553 26.8402C32.9067 26.8846 33.0602 26.8503 33.2157 26.7374ZM22.2648 24.6453L23.0137 22.4805L23.7503 24.6453H22.2648Z" fill="#402325"/>
</svg>
