<svg width="50" height="50" viewBox="0 0 50 50" fill="none" xmlns="http://www.w3.org/2000/svg">
<circle cx="25" cy="25" r="25" fill="black"/>
<path d="M30.7108 25.9026C30.7017 24.2632 31.4089 23.0277 32.8373 22.1166C32.0384 20.9148 30.8298 20.2537 29.2367 20.1263C27.7283 20.0013 26.0779 21.0494 25.4736 21.0494C24.835 21.0494 23.3746 20.1696 22.2255 20.1696C19.8542 20.2081 17.334 22.1551 17.334 26.1165C17.334 27.2871 17.5377 28.4962 17.9451 29.7413C18.4899 31.3807 20.4539 35.3974 22.5025 35.3325C23.5738 35.306 24.3314 34.5344 25.7254 34.5344C27.0782 34.5344 27.7786 35.3325 28.9735 35.3325C31.0404 35.3012 32.8167 31.6499 33.334 30.0058C30.562 28.6332 30.7108 25.9867 30.7108 25.9026ZM28.3051 18.5711C29.4656 17.124 29.3603 15.8068 29.326 15.3333C28.3005 15.3957 27.1148 16.0664 26.4396 16.8909C25.6956 17.7755 25.2584 18.8692 25.3523 20.1023C26.4602 20.1912 27.4719 19.5927 28.3051 18.5711Z" fill="white"/>
</svg>
