<svg width="34" height="34" viewBox="0 0 34 34" fill="none" xmlns="http://www.w3.org/2000/svg">
<path d="M19.2828 11.8591C19.2827 11.1827 19.5225 10.5282 19.9594 10.0119C20.3963 9.49565 21.0022 9.15101 21.6692 9.03928C22.3362 8.92755 23.0212 9.05596 23.6025 9.40168C24.1838 9.7474 24.6237 10.288 24.844 10.9275C25.0644 11.567 25.0509 12.2639 24.8059 12.8944C24.561 13.5248 24.1004 14.048 23.5062 14.3709C22.9119 14.6939 22.2224 14.7956 21.5602 14.6581C20.898 14.5206 20.3061 14.1527 19.8895 13.6199L14.6155 16.2571C14.7457 16.7426 14.7457 17.2537 14.6155 17.7392L19.8918 20.3787C20.329 19.822 20.9574 19.4475 21.6551 19.3279C22.3527 19.2082 23.07 19.3519 23.6677 19.731C24.2655 20.1102 24.7012 20.6978 24.8903 21.38C25.0795 22.0622 25.0086 22.7903 24.6915 23.4232C24.3744 24.0561 23.8336 24.5487 23.1739 24.8054C22.5143 25.0622 21.7828 25.0649 21.1213 24.813C20.4598 24.561 19.9154 24.0724 19.5937 23.4419C19.2719 22.8113 19.1957 22.0837 19.3799 21.4002L14.1037 18.7607C13.737 19.2283 13.2335 19.5698 12.6635 19.7377C12.0936 19.9057 11.4854 19.8917 10.9238 19.6977C10.3621 19.5036 9.87496 19.1393 9.53014 18.6553C9.18532 18.1713 9 17.5918 9 16.9976C9 16.4033 9.18532 15.8238 9.53014 15.3399C9.87496 14.8559 10.3621 14.4915 10.9238 14.2975C11.4854 14.1035 12.0936 14.0895 12.6635 14.2574C13.2335 14.4254 13.737 14.7669 14.1037 15.2345L19.3788 12.5984C19.3147 12.3572 19.2824 12.1087 19.2828 11.8591ZM22.1414 10.1428C21.6864 10.1428 21.2501 10.3236 20.9283 10.6453C20.6066 10.9671 20.4259 11.4035 20.4259 11.8585C20.4259 12.3135 20.6066 12.7499 20.9283 13.0717C21.2501 13.3934 21.6864 13.5742 22.1414 13.5742C22.5964 13.5742 23.0327 13.3934 23.3544 13.0717C23.6762 12.7499 23.8569 12.3135 23.8569 11.8585C23.8569 11.4035 23.6762 10.9671 23.3544 10.6453C23.0327 10.3236 22.5964 10.1428 22.1414 10.1428ZM22.1391 20.4267C21.6846 20.4267 21.2487 20.6072 20.9273 20.9287C20.6059 21.2501 20.4253 21.6861 20.4253 22.1406C20.4253 22.5952 20.6059 23.0312 20.9273 23.3526C21.2487 23.674 21.6846 23.8546 22.1391 23.8546C22.5936 23.8546 23.0295 23.674 23.3509 23.3526C23.6723 23.0312 23.8529 22.5952 23.8529 22.1406C23.8529 21.6861 23.6723 21.2501 23.3509 20.9287C23.0295 20.6072 22.5936 20.4267 22.1391 20.4267ZM10.1425 16.9987C10.1425 17.2238 10.1869 17.4467 10.273 17.6546C10.3591 17.8626 10.4854 18.0515 10.6445 18.2107C10.8036 18.3698 10.9926 18.4961 11.2005 18.5822C11.4084 18.6684 11.6313 18.7127 11.8563 18.7127C12.0814 18.7127 12.3043 18.6684 12.5122 18.5822C12.7201 18.4961 12.909 18.3698 13.0682 18.2107C13.2273 18.0515 13.3536 17.8626 13.4397 17.6546C13.5258 17.4467 13.5701 17.2238 13.5701 16.9987C13.5701 16.5441 13.3896 16.1082 13.0682 15.7868C12.7468 15.4653 12.3109 15.2847 11.8563 15.2847C11.4018 15.2847 10.9659 15.4653 10.6445 15.7868C10.3231 16.1082 10.1425 16.5441 10.1425 16.9987Z" fill="#AFAFAF"/>
</svg>
